<?xml version="1.0" encoding="utf-8"?>
<!-- Generator: Adobe Illustrator 16.0.4, SVG Export Plug-In . SVG Version: 6.00 Build 0)  -->
<!DOCTYPE svg PUBLIC "-//W3C//DTD SVG 1.1//EN" "http://www.w3.org/Graphics/SVG/1.1/DTD/svg11.dtd">
<svg version="1.1" id="Layer_1" xmlns="http://www.w3.org/2000/svg" xmlns:xlink="http://www.w3.org/1999/xlink" x="0px" y="0px"
	 width="240px" height="148px" viewBox="0 0 240 148" enable-background="new 0 0 240 148" xml:space="preserve">
<path fill="#FFFFFF" d="M144.935,18.965c-0.353-0.514-0.749-0.979-1.171-1.414c-0.417-0.436-0.868-0.834-1.343-1.195
	c-0.945-0.727-1.996-1.287-3.072-1.77c-1.078-0.48-2.21-0.84-3.356-1.141c-1.147-0.301-2.321-0.52-3.506-0.68
	c-4.742-0.666-9.639-0.492-14.498-0.09c-1.196,0.107-2.384,0.252-3.552,0.428c-1.168,0.166-2.318,0.373-3.442,0.623
	c-1.123,0.25-2.22,0.545-3.274,0.891c-1.057,0.336-2.074,0.715-3.031,1.154c-1.918,0.871-3.576,1.982-4.855,3.229
	c-1.279,1.25-2.14,2.682-2.606,4.172c-0.119,0.369-0.212,0.744-0.276,1.111c-0.064,0.363-0.102,0.734-0.102,1.025
	c0,0.07,0.002,0.135,0.008,0.174c0.002,0.023,0.005,0.029,0.008,0.035l0.011,0.125c0.016,0.162,0.037,0.316,0.065,0.469
	c0.057,0.307,0.138,0.598,0.238,0.865c0.438,1.062,1.002,1.754,2.139,2.42c0.563,0.326,1.265,0.619,2.072,0.852
	c0.808,0.227,1.711,0.416,2.677,0.543c1.936,0.254,4.094,0.266,6.308,0.109c0.555-0.039,1.113-0.088,1.676-0.146
	c0.563-0.051,1.129-0.111,1.698-0.18c1.139-0.139,2.286-0.311,3.44-0.512c0.581-0.1,1.145-0.203,1.744-0.32l1.872-0.359
	c1.248-0.238,2.494-0.486,3.748-0.703l7.518-1.328c1.254-0.213,2.508-0.445,3.77-0.639l3.812-0.596l0.175-0.027
	c3.443-0.537,6.671,1.818,7.209,5.264c0.194,1.242,0.013,2.453-0.462,3.521l-2.559,5.793l-2.614,5.77
	c-0.876,1.92-1.739,3.848-2.628,5.764l-2.682,5.738l-1.342,2.871l-1.369,2.857l-2.742,5.715l-2.801,5.689l-1.402,2.844l-1.432,2.832
	l-0.264,0.52c-1.043,2.062-3.559,2.889-5.619,1.846c-0.761-0.385-1.351-0.967-1.743-1.656l-2.615-4.57l-2.574-4.6
	c-0.864-1.529-1.708-3.07-2.55-4.615c-0.841-1.543-1.697-3.078-2.52-4.633c-0.827-1.553-1.667-3.098-2.483-4.658
	c-0.813-1.562-1.642-3.115-2.441-4.686l-1.205-2.355c-0.401-0.783-0.786-1.58-1.181-2.369c-0.782-1.582-1.576-3.158-2.326-4.762
	l-0.022-0.047c-0.084-0.18-0.006-0.395,0.175-0.48c0.163-0.076,0.354-0.02,0.452,0.127l11.716,17.453l5.851,8.73l5.568,8.369
	l18.583-45.56c0,0-8.957,2.064-13.939,2.994l-3.738,0.689c-1.244,0.227-2.491,0.469-3.756,0.676
	c-2.523,0.414-5.069,0.719-7.634,0.846c-2.564,0.121-5.155,0.07-7.724-0.324c-1.283-0.199-2.561-0.488-3.807-0.908
	c-1.244-0.42-2.457-0.971-3.575-1.701c-1.117-0.727-2.134-1.639-2.946-2.717c-0.815-1.076-1.418-2.311-1.779-3.604
	c-0.182-0.648-0.305-1.309-0.372-1.975c-0.034-0.332-0.054-0.668-0.06-1.002c-0.003-0.162-0.004-0.334,0.003-0.51
	c0.006-0.172,0.017-0.34,0.032-0.506c0.123-1.336,0.455-2.627,0.939-3.857c0.969-2.465,2.602-4.639,4.603-6.33
	c2.001-1.701,4.337-2.943,6.761-3.838c2.43-0.898,4.957-1.463,7.498-1.82c2.544-0.354,5.105-0.498,7.66-0.506
	c2.55-0.008,5.103,0.1,7.647,0.357c2.542,0.26,5.077,0.666,7.561,1.322c2.477,0.662,4.917,1.57,7.126,2.936
	c1.102,0.684,2.139,1.484,3.046,2.424c0.906,0.936,1.681,2.018,2.237,3.203c0.084,0.18,0.007,0.395-0.174,0.48
	c-0.162,0.074-0.353,0.02-0.451-0.123L144.935,18.965z"/>
<g>
	<path fill="#FFFFFF" d="M6.385,133.072c0,0,3.6,4.25,8.851,4.25c3.3,0,6.05-2,6.05-5.25c0-7.4-17.051-6.25-17.051-17.251
		c0-5.3,4.65-9.451,11.301-9.451c3.75,0,10.051,1.7,10.051,6.5v2.9h-4.601v-1.65c0-1.85-2.65-3.2-5.45-3.2c-3.8,0-6.2,2.1-6.2,4.75
		c0,7.15,17.001,5.55,17.001,17.151c0,5.4-4.2,10.05-11.201,10.05c-7.5,0-11.701-5.25-11.701-5.25L6.385,133.072z"/>
	<path fill="#FFFFFF" d="M32.02,111.371c0-0.75-0.4-1.1-1.1-1.1h-2.15v-4.3h5.05c2.25,0,3.2,0.95,3.2,3.2v19.551
		c0,5.3,3.35,8.451,8.451,8.451c5.1,0,8.451-3.15,8.451-8.5V109.17c0-2.25,1-3.2,3.25-3.2h5v4.3h-2.15c-0.7,0-1.1,0.35-1.1,1.1
		v17.551c0,7.7-5.35,12.95-13.401,12.95c-8.101,0-13.5-5.25-13.5-12.95V111.371z"/>
	<path fill="#FFFFFF" d="M68.26,110.271h-3.25v-4.3h15.551c6.45,0,11.051,4.351,11.051,11.051s-4.601,11.201-11.051,11.201H73.26
		v13.051h-5V110.271z M79.76,123.921c4.15,0,6.701-2.65,6.701-6.9c0-4.25-2.55-6.75-6.65-6.75H73.26v13.651H79.76z"/>
	<path fill="#FFFFFF" d="M96.689,110.271h-3.25v-4.3h15.55c6.451,0,11.05,4.351,11.05,11.051s-4.599,11.201-11.05,11.201h-7.299
		v13.051h-5V110.271z M108.189,123.921c4.15,0,6.7-2.65,6.7-6.9c0-4.25-2.55-6.75-6.65-6.75h-6.549v13.651H108.189z"/>
	<path fill="#FFFFFF" d="M121.963,136.972h3.45v-26.702h-3.45v-4.3h11.65v4.3h-3.45v26.702h3.45v4.3h-11.65V136.972z"/>
	<path fill="#FFFFFF" d="M139.907,111.371c0-0.75-0.4-1.1-1.101-1.1h-2.149v-4.3h5.05c2.25,0,3.2,0.95,3.2,3.2v26.702
		c0,0.7,0.4,1.1,1.101,1.1h9.75c0.7,0,1.101-0.4,1.101-1.1v-2.25h4.55v4.45c0,2.25-0.95,3.2-3.2,3.2h-15.101
		c-2.25,0-3.2-0.95-3.2-3.2V111.371z"/>
	<path fill="#FFFFFF" d="M180.458,105.37c10.201,0,18.151,7.851,18.151,18.001c0,10.4-7.95,18.5-18.151,18.5
		c-10.2,0-18.101-8.1-18.101-18.5C162.357,113.221,170.258,105.37,180.458,105.37z M180.458,137.172c7.15,0,12.951-6,12.951-13.801
		c0-7.551-5.801-13.351-12.951-13.351s-12.9,5.8-12.9,13.351C167.558,131.172,173.308,137.172,180.458,137.172z"/>
	<path fill="#FFFFFF" d="M219.299,105.37c8.451,0,12.602,4.351,12.602,4.351l-2.851,3.65c0,0-3.8-3.4-9.65-3.4
		c-7.051,0-12.701,5.65-12.701,13.5c0,8.201,5.65,13.701,12.801,13.701c6.301,0,10.051-4.4,10.051-4.4v-3.55c0-0.7-0.4-1.1-1.1-1.1
		h-2.15v-4.3h4.65c2.25,0,3.2,0.95,3.2,3.2v14.251h-4.4v-2.2c0-0.75,0.05-1.5,0.05-1.5h-0.1c0,0-3.95,4.3-11.001,4.3
		c-9.4,0-17.201-7.4-17.201-18.401C201.498,113.321,209.198,105.37,219.299,105.37z"/>
</g>
</svg>
